<?xml version="1.0" ?><svg height="64" viewBox="0 0 64 64" width="64" xmlns="http://www.w3.org/2000/svg"><defs><style>.cls-1{fill:#fff;}.cls-1,.cls-2,.cls-3{stroke:#006df0;stroke-linecap:round;stroke-linejoin:round;stroke-width:2px;}.cls-2{fill:#78b9eb;}.cls-3{fill:none;}</style></defs><title/><g data-name="4" id="_4"><path class="cls-1" d="M42.5,14V9a3,3,0,0,0-3-3h-24a3,3,0,0,0-3,3V55a3,3,0,0,0,3,3h24a3,3,0,0,0,3-3V54"/><rect class="cls-2" height="4" width="12" x="21.5" y="6"/><line class="cls-2" x1="21.5" x2="21.5" y1="19" y2="21"/><line class="cls-2" x1="27.5" x2="27.5" y1="18.5" y2="21.5"/><line class="cls-2" x1="33.5" x2="33.5" y1="19" y2="21"/><line class="cls-2" x1="24.5" x2="24.5" y1="17" y2="23"/><line class="cls-2" x1="30.5" x2="30.5" y1="17" y2="23"/><polyline class="cls-3" points="18.5 24 18.5 26 36.5 26 36.5 24"/><polyline class="cls-3" points="36.5 16 36.5 14 18.5 14 18.5 16"/><polygon class="cls-2" points="27.5 29 27.5 29 27.5 29 27.5 29 27.5 29"/><polygon class="cls-2" points="27.5 32 27.5 32 27.5 32 27.5 32 27.5 32"/><polygon class="cls-2" points="27.5 35 27.5 35 27.5 35 27.5 35 27.5 35"/><polygon class="cls-2" points="27.5 38 27.5 38 27.5 38 27.5 38 27.5 38"/><polygon class="cls-2" points="27.5 41 27.5 41 27.5 41 27.5 41 27.5 41"/><polygon class="cls-2" points="24.5 41 24.5 41 24.5 41 24.5 41 24.5 41"/><polygon class="cls-2" points="21.5 41 21.5 41 21.5 41 21.5 41 21.5 41"/><polygon class="cls-2" points="21.5 44 21.5 44 21.5 44 21.5 44 21.5 44"/><polygon class="cls-2" points="21.5 47 21.5 47 21.5 47 21.5 47 21.5 47"/><polygon class="cls-2" points="21.5 50 21.5 50 21.5 50 21.5 50 21.5 50"/><polygon class="cls-2" points="30.5 41 30.5 41 30.5 41 30.5 41 30.5 41"/><polygon class="cls-1" points="42.5 32 33.5 35 42.5 38 51.5 35 42.5 32"/><polygon class="cls-2" points="51.5 47 42.5 50 33.5 47 33.5 35 42.5 38 51.5 35 51.5 47"/><line class="cls-2" x1="42.5" x2="42.5" y1="38" y2="50"/><line class="cls-1" x1="42.5" x2="42.5" y1="22" y2="28"/><polygon class="cls-2" points="45.5 22 42.5 18 39.5 22 45.5 22"/><polygon class="cls-2" points="37 58 18 58 25.5 50.5 29 54 31 52 37 58"/><line class="cls-2" x1="30" x2="29" y1="55" y2="54"/></g></svg>