<?xml version="1.0" ?><svg height="64" viewBox="0 0 64 64" width="64" xmlns="http://www.w3.org/2000/svg"><defs><style>.cls-1{fill:#fff;}.cls-1,.cls-2,.cls-3{stroke:#006df0;stroke-linecap:round;stroke-linejoin:round;stroke-width:2px;}.cls-2{fill:#78b9eb;}.cls-3{fill:none;}</style></defs><title/><g data-name="7" id="_7"><path class="cls-1" d="M57,23.5v22a4,4,0,0,1-4,4H11a4,4,0,0,1-4-4v-22Z"/><path class="cls-2" d="M49,23.5v22a4,4,0,0,1,8,0v-22a4,4,0,0,0-8,0Z"/><polygon class="cls-1" points="32 14.5 23 17.5 32 20.5 41 17.5 32 14.5"/><polygon class="cls-2" points="41 29.5 32 32.5 23 29.5 23 17.5 32 20.5 41 17.5 41 29.5"/><line class="cls-2" x1="32" x2="32" y1="20.5" y2="32.5"/><path class="cls-2" d="M15,23.5v22a4,4,0,0,0-8,0v-22a4,4,0,0,1,8,0Z"/><polyline class="cls-3" points="29 35.5 32 36.5 35 35.5"/><polygon class="cls-2" points="32 39.5 32 39.5 32 39.5 32 39.5 32 39.5"/><polygon class="cls-2" points="32 42.5 32 42.5 32 42.5 32 42.5 32 42.5"/><polygon class="cls-2" points="32 45.5 32 45.5 32 45.5 32 45.5 32 45.5"/><polygon class="cls-2" points="29 45.5 29 45.5 29 45.5 29 45.5 29 45.5"/><polygon class="cls-2" points="26 45.5 26 45.5 26 45.5 26 45.5 26 45.5"/><polygon class="cls-2" points="35 45.5 35 45.5 35 45.5 35 45.5 35 45.5"/><polygon class="cls-2" points="38 45.5 38 45.5 38 45.5 38 45.5 38 45.5"/></g></svg>