<?xml version="1.0" ?><svg height="64" viewBox="0 0 64 64" width="64" xmlns="http://www.w3.org/2000/svg"><defs><style>.cls-1{fill:#006df0;}.cls-2{fill:#78b9eb;}.cls-2,.cls-3{stroke:#006df0;stroke-linecap:round;stroke-linejoin:round;stroke-width:2px;}.cls-3{fill:#fff;}</style></defs><title/><g data-name="9" id="_9"><path class="cls-1" d="M25.99,54.72a.994.994,0,0,1-.71-1.22h0a1,1,0,0,1,1.22-.71h0a1,1,0,0,1,.71,1.22h0a1,1,0,0,1-.97.75h0A.723.723,0,0,1,25.99,54.72Z"/><path class="cls-1" d="M36.92,53.979a.986.986,0,0,1,.71-1.219h0a.987.987,0,0,1,1.22.7h0a1,1,0,0,1-.7,1.229h0a1.149,1.149,0,0,1-.259.031h0A.993.993,0,0,1,36.92,53.979Z"/><path class="cls-1" d="M20.319,52.39a.988.988,0,0,1-.369-1.36h0a.988.988,0,0,1,1.36-.37h0a.988.988,0,0,1,.37,1.36h0a.984.984,0,0,1-.87.51h0A.974.974,0,0,1,20.319,52.39Z"/><path class="cls-1" d="M42.439,51.96a1,1,0,0,1,.361-1.37h0a1.006,1.006,0,0,1,1.37.36h0a1.006,1.006,0,0,1-.36,1.369h0a1.019,1.019,0,0,1-.5.141h0A1.009,1.009,0,0,1,42.439,51.96Z"/><path class="cls-1" d="M15.439,48.67v.01h0a1.01,1.01,0,0,1,0-1.42h0a1,1,0,0,1,1.411,0h0a1,1,0,0,1,0,1.41h0a.962.962,0,0,1-.7.29h0A.985.985,0,0,1,15.439,48.67Z"/><path class="cls-1" d="M47.24,48.58a1.008,1.008,0,0,1,0-1.42h0a1,1,0,0,1,1.409,0h0a1.007,1.007,0,0,1,.011,1.42h0a1.024,1.024,0,0,1-.71.29h0A1.021,1.021,0,0,1,47.24,48.58Z"/><path class="cls-1" d="M11.689,43.83h0a1,1,0,0,1,.361-1.37h0a1,1,0,0,1,1.37.359h0a1.017,1.017,0,0,1-.36,1.37h0a1.038,1.038,0,0,1-.51.13h0A.985.985,0,0,1,11.689,43.83Z"/><path class="cls-1" d="M51.02,44.069a.99.99,0,0,1-.371-1.359h0a.993.993,0,0,1,1.361-.37h0a.989.989,0,0,1,.37,1.36h0a1,1,0,0,1-.87.51h0A.977.977,0,0,1,51.02,44.069Z"/><path class="cls-1" d="M9.319,38.17a1.006,1.006,0,0,1,.7-1.231h0a1,1,0,0,1,1.23.71h0a1,1,0,0,1-.71,1.221h0a.77.77,0,0,1-.26.04h0A1,1,0,0,1,9.319,38.17Z"/><path class="cls-1" d="M53.49,38.74a1,1,0,0,1-.71-1.22h0a1,1,0,0,1,1.23-.71h0a1,1,0,0,1,.71,1.22h0a1.014,1.014,0,0,1-.97.75h0A1.266,1.266,0,0,1,53.49,38.74Z"/><path class="cls-1" d="M10,27.15a1.016,1.016,0,0,1-.71-1.23h0a1.012,1.012,0,0,1,1.23-.71h0a1.007,1.007,0,0,1,.709,1.23h0a1.013,1.013,0,0,1-.969.74h0A1.222,1.222,0,0,1,10,27.15Z"/><path class="cls-1" d="M52.76,26.39a1,1,0,0,1,.71-1.22h0a.993.993,0,0,1,1.219.71h0v-.01h0a.993.993,0,0,1-.7,1.23h0a1.231,1.231,0,0,1-.261.03h0A1,1,0,0,1,52.76,26.39Z"/><path class="cls-1" d="M12.01,21.62a1,1,0,0,1-.37-1.37h0a1.007,1.007,0,0,1,1.37-.36h0a1,1,0,0,1,.36,1.36h0a.976.976,0,0,1-.87.5h0A.973.973,0,0,1,12.01,21.62Z"/><path class="cls-1" d="M50.6,21.22h.009a1,1,0,0,1,.361-1.37h0a1,1,0,0,1,1.36.36h0a1,1,0,0,1-.36,1.37h0a1.022,1.022,0,0,1-.5.14h0A1.019,1.019,0,0,1,50.6,21.22Z"/><path class="cls-1" d="M15.37,16.8a.994.994,0,0,1,0-1.41h0a1.008,1.008,0,0,1,1.42,0h0a1,1,0,0,1,0,1.41h0a.992.992,0,0,1-.71.3h0A1.008,1.008,0,0,1,15.37,16.8Z"/><path class="cls-1" d="M47.18,16.77a1,1,0,0,1,0-1.41h0a1,1,0,0,1,1.41,0h0a1,1,0,0,1,0,1.41h0a.972.972,0,0,1-.7.3h0A.976.976,0,0,1,47.18,16.77Z"/><path class="cls-1" d="M19.87,13.02a1,1,0,0,1,.359-1.37h0a1.012,1.012,0,0,1,1.371.37h0a1,1,0,0,1-.36,1.36h0a.926.926,0,0,1-.5.14h0A1.006,1.006,0,0,1,19.87,13.02Z"/><path class="cls-1" d="M42.729,13.36a.992.992,0,0,1-.37-1.36h0a1,1,0,0,1,1.37-.37H43.72a.992.992,0,0,1,.37,1.36h0a.985.985,0,0,1-.87.51h0A.964.964,0,0,1,42.729,13.36Z"/><path class="cls-1" d="M25.189,10.52A1,1,0,0,1,25.9,9.3h0a1,1,0,0,1,1.221.71h0a.994.994,0,0,1-.71,1.22h0a.748.748,0,0,1-.261.04h0A1,1,0,0,1,25.189,10.52Z"/><path class="cls-1" d="M37.54,11.22A1,1,0,0,1,36.83,10h0a.994.994,0,0,1,1.22-.71h0a.987.987,0,0,1,.71,1.22h0a.983.983,0,0,1-.96.74h0A1.153,1.153,0,0,1,37.54,11.22Z"/><line class="cls-2" x1="32" x2="32" y1="7" y2="57"/><line class="cls-2" x1="57" x2="7" y1="32" y2="32"/><circle class="cls-2" cx="32" cy="32" r="18"/><circle class="cls-3" cx="32" cy="32" r="13"/><polygon class="cls-3" points="32 25 25 27.333 32 29.667 39 27.333 32 25"/><polygon class="cls-2" points="39 36.667 32 39 25 36.667 25 27.333 32 29.667 39 27.333 39 36.667"/><line class="cls-2" x1="32" x2="32" y1="29.667" y2="39"/></g></svg>